#!OML:ASF H:\Male1\Project 1\Capture day 1\Session 1\Male1.ASF
:FULLY-SPECIFIED
:DEGREES
306
root 22.269 15.4704 0.597621 27.0267 -81.3227 -26.5406
lowerback 12.7752 2.09168 -0.385802
upperback 9.36328 2.24491 0.636598
thorax 2.63572 0.888443 0.641309
lowerneck -8.69316 0.419959 7.195
upperneck 5.16899 0.28064 -8.10194
head 2.97207 -0.0590297 -3.62304
rclavicle 1.49089e-014 -2.38542e-015
rhumerus 10.7873 -3.44032 -51.7346
rradius 118.015
rwrist -10.8508
rhand 0.534456 19.9967
rfingers 7.12502
rthumb 26.1022 -8.22945
lclavicle 1.49089e-014 -2.38542e-015
lhumerus -25.7443 -33.8415 87.3211
lradius 134.881
lwrist 6.85152
lhand 2.79373 -15.4219
lfingers 7.12502
lthumb 28.2634 12.4661
rfemur -6.10216 2.83878 22.3695
rtibia 21.9376
rfoot -28.4882 -32.7116
rtoes -13.9278
lfemur -14.6829 -16.2199 -10.9753
ltibia 30.049
lfoot -16.1152 16.875
ltoes -21.4736
307
root 22.2666 15.5038 0.587598 26.4871 -80.5619 -25.5721
lowerback 12.6157 2.43281 -0.179232
upperback 9.34326 2.72593 0.412482
thorax 2.71471 1.15042 0.249244
lowerneck -8.8473 0.139893 6.64203
upperneck 5.05634 -0.143402 -6.58672
head 2.93034 -0.216898 -3.08604
rclavicle 3.00165e-014 -2.10712e-014
rhumerus 18.4941 -6.29132 -48.3748
rradius 112.484
rwrist -11.8446
rhand 0.217604 19.7407
rfingers 7.12502
rthumb 25.7988 -8.52989
lclavicle 3.00165e-014 -2.10712e-014
lhumerus -25.9269 -34.0176 85.4108
lradius 135.131
lwrist 7.77596
lhand 2.22194 -15.0908
lfingers 7.12502
lthumb 27.7168 12.8865
rfemur -5.86611 3.66347 22.7064
rtibia 20.9353
rfoot -29.8256 -33.3501
rtoes -10.7487
lfemur -14.9532 -16.2932 -10.5326
ltibia 29.2654
lfoot -15.7858 16.4117
ltoes -21.8653
308
root 22.2674 15.533 0.576649 25.9189 -80.0208 -24.5739
lowerback 12.4897 2.70924 -0.082301
upperback 9.32699 3.10905 0.098326
thorax 2.78689 1.35971 -0.164094
lowerneck -8.63938 -0.215664 6.00746
upperneck 4.51714 -0.66114 -4.85798
head 2.98454 -0.400713 -2.72477
rclavicle -4.17448e-015 3.4191e-014
rhumerus 26.9096 -8.71057 -45.682
rradius 105.983
rwrist -11.9535
rhand 0.334315 18.6739
rfingers 7.12502
rthumb 25.9105 -9.5805
lclavicle -4.17448e-015 3.4191e-014
lhumerus -25.8572 -33.7781 83.1194
lradius 135.341
lwrist 8.84868
lhand 2.99267 -14.619
lfingers 7.12502
lthumb 28.4535 13.2375
rfemur -5.67873 4.51532 22.884
rtibia 19.9292
rfoot -31.113 -33.8523
rtoes -7.42334
lfemur -15.2665 -16.515 -10.2155
ltibia 28.6747
lfoot -15.5541 16.0235
ltoes -20.2359
309
root 22.2741 15.556 0.563824 25.1194 -79.6072 -23.3818
lowerback 12.4126 2.89254 -0.0671374
upperback 9.36038 3.35627 -0.297456
thorax 2.89111 1.497 -0.60284
lowerneck -8.64846 -0.333779 5.681
upperneck 4.14705 -0.864533 -3.66973
head 2.83899 -0.466742 -2.26123
rclavicle 1.13307e-014 -1.43125e-014
rhumerus 34.7032 -10.4407 -43.4687
rradius 97.4961
rwrist -11.8001
rhand 1.96608 17.3197
rfingers 7.12502
rthumb 27.4721 -10.6966
lclavicle 1.13307e-014 -1.43125e-014
lhumerus -25.4536 -33.2503 80.605
lradius 135.477
lwrist 9.66223
lhand 3.56107 -14.2157
lfingers 7.12502
lthumb 28.9966 13.5487
rfemur -5.52668 5.25167 22.9166
rtibia 18.9761
rfoot -32.1591 -34.3273
rtoes -4.78384
lfemur -15.5967 -16.9611 -10.0395
ltibia 28.2443
lfoot -15.4077 15.9774
ltoes -17.817
310
root 22.2823 15.5719 0.549509 26.2908 -79.3319 -24.2032
lowerback 12.7213 2.98566 0.910354
upperback 9.16426 3.57817 -1.23306
thorax 2.65064 1.68511 -2.16102
lowerneck -8.67309 -0.404179 5.68748
upperneck 3.89043 -1.07385 -1.91634
head 2.74012 -0.51182 -1.68093
rclavicle -6.40087e-014 4.13472e-014
rhumerus 41.6118 -12.0359 -42.8451
rradius 86.9958
rwrist -9.5538
rhand 2.6193 18.6282
rfingers 7.12502
rthumb 28.0967 -9.28726
lclavicle -6.40087e-014 4.13472e-014
lhumerus -25.029 -33.0111 77.3994
lradius 135.675
lwrist 10.4378
lhand 3.62506 -13.7694
lfingers 7.12502
lthumb 29.0577 13.9844
rfemur -5.50433 5.95806 23.2455
rtibia 18.201
rfoot -32.7081 -34.8047
rtoes -3.35055
lfemur -15.9091 -17.2171 -9.60886
ltibia 27.9534
lfoot -15.2769 16.3047
ltoes -17.2242
311
root 22.2912 15.5805 0.535493 28.1662 -79.1279 -25.9043
lowerback 12.7527 3.20491 0.871411
upperback 9.20943 3.85853 -1.25988
thorax 2.69489 1.82331 -2.19477
lowerneck -8.53869 -0.391725 5.08716
upperneck 3.41558 -1.05264 -0.750766
head 2.55262 -0.479447 -1.18125
rclavicle 4.37326e-014 2.38542e-015
rhumerus 49.0225 -12.9137 -41.3744
rradius 75.5413
rwrist -7.57364
rhand 2.89632 18.7122
rfingers 7.12502
rthumb 28.3615 -9.15959
lclavicle 4.37326e-014 2.38542e-015
lhumerus -24.8568 -32.0143 76.0484
lradius 135.778
lwrist 10.636
lhand 3.34785 -13.5492
lfingers 7.12502
lthumb 28.7929 14.25
rfemur -5.4531 6.61469 23.7218
rtibia 17.6539
rfoot -33.0348 -35.2145
rtoes -2.51811
lfemur -16.0983 -17.4121 -9.11405
ltibia 27.8022
lfoot -15.0902 16.8495
ltoes -18.3861
